<svg width="64" height="64" viewBox="0 0 64 64" fill="none" xmlns="http://www.w3.org/2000/svg">
<path d="M37.3826 44C37.1186 43.472 36.7946 42.884 36.4106 42.236C36.0266 41.588 35.6066 40.928 35.1506 40.256C34.6946 39.56 34.2266 38.876 33.7466 38.204C33.2666 37.532 32.7986 36.896 32.3426 36.296C31.8866 36.896 31.4186 37.544 30.9386 38.24C30.4586 38.912 29.9906 39.596 29.5346 40.292C29.1026 40.964 28.6946 41.624 28.3106 42.272C27.9266 42.92 27.6026 43.496 27.3386 44H23.8826C24.7226 42.368 25.7186 40.712 26.8706 39.032C28.0466 37.328 29.2106 35.708 30.3626 34.172L24.1706 25.28H27.9506L32.4146 31.832L36.9146 25.28H40.4786L34.4306 33.956C35.5826 35.516 36.7586 37.172 37.9586 38.924C39.1826 40.652 40.2146 42.344 41.0546 44H37.3826Z" fill="white"/>
</svg>
