<svg width="64" height="64" viewBox="0 0 64 64" fill="none" xmlns="http://www.w3.org/2000/svg">
<rect width="64" height="64" fill="#C8C8C8"/>
<path d="M16 50C14.9 50 13.9583 49.6083 13.175 48.825C12.3917 48.0417 12 47.1 12 46V22C12 20.9 12.3917 19.9583 13.175 19.175C13.9583 18.3917 14.9 18 16 18H48C49.1 18 50.0417 18.3917 50.825 19.175C51.6083 19.9583 52 20.9 52 22V46C52 47.1 51.6083 48.0417 50.825 48.825C50.0417 49.6083 49.1 50 48 50H16ZM16 46H48V26H16V46ZM23 44L20.2 41.2L25.35 36L20.15 30.8L23 28L31 36L23 44ZM32 44V40H44V44H32Z" fill="#0A0A0A"/>
</svg>
